<svg height="512pt" viewBox="-56 0 512 512" width="512pt" xmlns="http://www.w3.org/2000/svg"><path d="m392.753906 225.65625c4.179688 0 7.574219-3.394531 7.574219-7.578125v-118.84375c0-9.605469-7.816406-17.421875-17.425781-17.421875h-29.714844v-23.476562c0-9.617188-7.808594-17.425782-17.425781-17.425782h-30.6875v-23.484375c0-9.605469-7.820313-17.425781-17.425781-17.425781h-209.128907c-4.183593 0-7.578125 3.394531-7.578125 7.574219 0 4.183593 3.394532 7.578125 7.578125 7.578125h209.128907c1.25 0 2.273437 1.019531 2.273437 2.273437v395.339844c0 1.25-1.023437 2.269531-2.273437 2.269531-12.386719 0-259.148438 0-270.222657 0-1.253906 0-2.273437-1.019531-2.273437-2.269531v-395.339844c0-1.253906 1.019531-2.273437 2.273437-2.273437h30.789063c4.179687 0 7.574218-3.394532 7.574218-7.578125 0-4.179688-3.394531-7.574219-7.574218-7.574219h-30.789063c-9.605469 0-17.425781 7.820312-17.425781 17.425781v395.339844c0 9.605469 7.820312 17.421875 17.425781 17.421875h30.699219v23.476562c0 9.617188 7.804688 17.425782 17.421875 17.425782h29.710937v23.484375c0 9.605469 7.816407 17.425781 17.421876 17.425781h270.222656c9.609375 0 17.425781-7.820312 17.425781-17.425781v-246.191407c0-4.179687-3.394531-7.574218-7.574219-7.574218-4.191406 0-7.578125 3.394531-7.578125 7.574218v246.191407c0 1.253906-1.019531 2.273437-2.273437 2.273437h-270.222656c-1.25 0-2.269532-1.019531-2.269532-2.273437v-23.484375h225.351563c9.617187 0 17.425781-7.808594 17.425781-17.425782v-104.773437c0-4.179687-3.386719-7.574219-7.578125-7.574219-4.183594 0-7.574219 3.394532-7.574219 7.574219v104.773437c0 1.253907-1.011718 2.273438-2.273437 2.273438-11.90625 0-258.308594 0-270.214844 0-1.261719 0-2.273437-1.019531-2.273437-2.273438v-23.476562h224.375c9.605468 0 17.425781-7.816406 17.425781-17.421875 0-11.0625 0-339.191406 0-356.703125h30.6875c1.261719 0 2.273437 1.019531 2.273437 2.273438v260.253906c0 4.191406 3.390625 7.574218 7.574219 7.574218 4.191406 0 7.578125-3.382812 7.578125-7.574218v-221.625h29.714844c1.253906 0 2.273437 1.019531 2.273437 2.269531v118.84375c0 4.183594 3.386719 7.578125 7.578125 7.578125zm0 0"/><path d="m195.285156 75c0-23.570312-19.175781-42.746094-42.746094-42.746094-23.570312 0-42.746093 19.175782-42.746093 42.746094s19.175781 42.742188 42.746093 42.742188c23.570313 0 42.746094-19.171876 42.746094-42.742188zm-70.339844 0c0-15.21875 12.378907-27.59375 27.59375-27.59375 15.214844 0 27.59375 12.378906 27.59375 27.59375s-12.378906 27.59375-27.59375 27.59375c-15.214843 0-27.59375-12.378906-27.59375-27.59375zm0 0"/><path d="m255.914062 82.574219c4.1875 0 7.578126-3.390625 7.578126-7.574219 0-4.1875-3.390626-7.578125-7.578126-7.578125h-35.523437c-4.183594 0-7.574219 3.390625-7.574219 7.578125 0 4.183594 3.390625 7.574219 7.574219 7.574219zm0 0"/><path d="m84.6875 67.421875h-35.527344c-4.183594 0-7.574218 3.390625-7.574218 7.578125 0 4.183594 3.390624 7.574219 7.574218 7.574219h35.527344c4.183594 0 7.574219-3.390625 7.574219-7.574219 0-4.1875-3.390625-7.578125-7.574219-7.578125zm0 0"/><path d="m59.101562 146.90625c0 4.183594 3.390626 7.574219 7.574219 7.574219h171.722657c4.1875 0 7.578124-3.390625 7.578124-7.574219 0-4.1875-3.390624-7.578125-7.578124-7.578125h-171.722657c-4.183593 0-7.574219 3.390625-7.574219 7.578125zm0 0"/><path d="m238.398438 176.066406h-171.722657c-4.183593 0-7.574219 3.390625-7.574219 7.574219s3.390626 7.574219 7.574219 7.574219h171.722657c4.1875 0 7.578124-3.390625 7.578124-7.574219s-3.390624-7.574219-7.578124-7.574219zm0 0"/><path d="m238.398438 212.800781h-171.722657c-4.183593 0-7.574219 3.390625-7.574219 7.574219 0 4.1875 3.390626 7.578125 7.574219 7.578125h171.722657c4.1875 0 7.578124-3.390625 7.578124-7.578125 0-4.183594-3.390624-7.574219-7.578124-7.574219zm0 0"/><path d="m238.398438 249.535156h-171.722657c-4.183593 0-7.574219 3.390625-7.574219 7.578125 0 4.183594 3.390626 7.574219 7.574219 7.574219h171.722657c4.1875 0 7.578124-3.390625 7.578124-7.574219 0-4.1875-3.390624-7.578125-7.578124-7.578125zm0 0"/><path d="m238.398438 286.273438h-171.722657c-4.183593 0-7.574219 3.390624-7.574219 7.578124 0 4.183594 3.390626 7.574219 7.574219 7.574219h171.722657c4.1875 0 7.578124-3.390625 7.578124-7.574219 0-4.1875-3.390624-7.578124-7.578124-7.578124zm0 0"/><path d="m194.125 382.726562c3.242188 2.65625 8.015625 2.179688 10.664062-1.054687l13.117188-15.996094 13.117188 15.996094c1.5 1.828125 3.671874 2.773437 5.863281 2.773437 6.335937 0 9.925781-7.417968 5.855469-12.378906l-15.035157-18.339844 15.035157-18.335937c2.652343-3.238281 2.179687-8.011719-1.054688-10.664063-3.234375-2.652343-8.007812-2.179687-10.664062 1.054688l-13.117188 15.996094-13.117188-15.996094c-2.652343-3.234375-7.429687-3.707031-10.664062-1.054688-3.234375 2.652344-3.707031 7.425782-1.054688 10.664063l15.039063 18.335937-15.039063 18.339844c-2.652343 3.234375-2.179687 8.007813 1.054688 10.660156zm0 0"/></svg>